Coordinates
nRows=4
nColumns=38

# SIMM Motion File Header:
name Coordinates
datacolumns 38
datarows 4
otherdata 1
range 0.67766999999999999000 0.68067000000000000000

Units are S.I. units (second, meters, Newtons, ...)
Angles are in degrees.

endheader
time	pelvis_tilt	pelvis_list	pelvis_rotation	pelvis_tx	pelvis_ty	pelvis_tz	hip_flexion_r	hip_adduction_r	hip_rotation_r	knee_angle_r	ankle_angle_r	subtalar_angle_r	mtp_angle_r	hip_flexion_l	hip_adduction_l	hip_rotation_l	knee_angle_l	ankle_angle_l	subtalar_angle_l	mtp_angle_l	lumbar_extension	lumbar_bending	lumbar_rotation	arm_flex_r	arm_add_r	arm_rot_r	elbow_flex_r	pro_sup_r	wrist_flex_r	wrist_dev_r	arm_flex_l	arm_add_l	arm_rot_l	elbow_flex_l	pro_sup_l	wrist_flex_l	wrist_dev_l
      0.67766999999999999000	     -4.07420759368148650000	     -1.03845213551809070000	     -1.99175213061124650000	      0.89157270563936108000	      0.96787358240917754000	     -0.27446416456787975000	      2.27148410084874850000	      9.06226472220200560000	     10.08059969262712500000	    -27.04962546136353300000	     16.28368400645359100000	     -0.00000000000004386238	     -0.00000000000000920478	     36.57569120485629100000	     -1.51551906870371860000	     -0.96194408357209160000	    -90.04059316048643800000	      4.04841607041557690000	     -0.00000000000000548894	      0.00000000000000646574	    -10.17982523582955100000	      2.20865123057005340000	      6.82336920442867530000	    -19.82566052653090300000	    -23.14744516146010200000	      1.46529474667357080000	     94.84489403331032500000	     98.83749232086604800000	     -0.00000000000000045927	     -0.00000000000000155279	    -36.17298184268845800000	    -20.73996076019264500000	      2.81119648922930530000	    100.54813171869813000000	    114.03898362728789000000	      0.00000000000000111542	      0.00000000000000554071
      0.67867000000000000000	     -4.10866547613847020000	     -0.92958989266808223000	     -1.92658679870534620000	      0.89174522764191999000	      0.96857542413316067000	     -0.27452270033741571000	      1.94042357501364120000	      8.90389652815065170000	     10.08142541815669400000	    -26.68244740413036500000	     15.98238479526540900000	     -0.00000000000004517307	     -0.00000000000000946234	     36.69349412360316600000	     -1.34379174489063980000	     -0.93379627319169833000	    -89.59140767031446700000	      4.12977832492174100000	     -0.00000000000000556743	      0.00000000000000653812	    -10.10039168316484200000	      2.08184305565787890000	      6.86035903170002110000	    -19.82207991220882100000	    -23.13979851335816600000	      1.47492793349508530000	     95.10437116874716400000	     98.78388620056179500000	     -0.00000000000000035311	     -0.00000000000000166268	    -36.36124640336547000000	    -20.82556858053333200000	      2.78675380690637950000	    100.70324681431968000000	    114.10863570633069000000	      0.00000000000000113503	      0.00000000000000562954
      0.67967000000000000000	     -4.14307295449858870000	     -0.82013662466625281000	     -1.86095726130524010000	      0.89192197832249798000	      0.96928092115495657000	     -0.27458511632102311000	      1.61054378914013400000	      8.74443263063935030000	     10.07839058398050000000	    -26.31594964393183700000	     15.67146557286539900000	     -0.00000000000004646596	     -0.00000000000000971403	     36.80710574227532600000	     -1.17037397986495880000	     -0.90546636240865574000	    -89.13651502394796500000	      4.21063332915798320000	     -0.00000000000000565092	      0.00000000000000661401	    -10.02072265838691200000	      1.95473268189503150000	      6.89610653226595630000	    -19.82025697026144700000	    -23.13335607149965200000	      1.48507228986993930000	     95.36385229014563000000	     98.73605653245688500000	     -0.00000000000000026620	     -0.00000000000000178111	    -36.54985952718033800000	    -20.90986729601384700000	      2.76057784092234470000	    100.85728100692826000000	    114.18003578047018000000	      0.00000000000000115516	      0.00000000000000572072
      0.68067000000000000000	     -4.17745339101382470000	     -0.71013581492889599000	     -1.79489917099071920000	      0.89210276851280446000	      0.96998984153404955000	     -0.27465137065086881000	      1.28197600641602060000	      8.58394874668150010000	     10.07142682250475100000	    -25.95030647098521100000	     15.35092845782010500000	     -0.00000000000004776729	     -0.00000000000000996800	     36.91658363950834600000	     -0.99532012023578365000	     -0.87689011107954085000	    -88.67596617444205300000	      4.29089879964692060000	     -0.00000000000000572061	      0.00000000000000669525	     -9.94083044831892510000	      1.82736364419082430000	      6.93066851441476930000	    -19.82018438501718900000	    -23.12811324829749200000	      1.49570335878804660000	     95.62330967322326100000	     98.69390397701191400000	     -0.00000000000000018741	     -0.00000000000000193382	    -36.73875719407499900000	    -20.99281863783567600000	      2.73272400504340720000	    101.01017652039282000000	    114.25293902869569000000	      0.00000000000000117555	      0.00000000000000581202
